<svg xmlns="http://www.w3.org/2000/svg" viewBox="0 0 506.61 526.74"><defs><style>.a,.b,.e{fill:#1a0c2b}.a,.b{stroke:#7647f9}.a,.b,.g,.j,.k,.l,.n,.p,.q,.r{stroke-miterlimit:10}.a,.p,.r{stroke-width:5px}.b,.g,.j,.k,.n,.q{stroke-width:4px}.c{fill:#7647f9}.d{fill:#371f66}.f{fill:#3bffbe}.g{fill:#f8e8d9;stroke:#f5d6ba}.h{fill:#fff}.i{fill:#ebebeb}.j{fill:#f7e9da}.j,.r{stroke:#ebebeb}.k,.l,.n,.p,.q,.r{fill:none}.k,.l{stroke:#f4d7bc}.l{stroke-width:2px}.m{fill:#73b4cd}.n{stroke:#fff}.o{fill:#f6f6f6}.p{stroke:#e7c4ac}.q{stroke:#e1c1ae}.s{fill:#e2e2e5}</style></defs><title>404</title><path class="a" d="M450.48 203.03l23.69 15.21 26.7 53.68s13.07 14.71-13.35 51.47c0 62.37-.54 159.05-.54 159.05H275.36V322.32s-28.32-29.69-15-53.65 27-50.93 27-50.93l27.76-18.82z"/><path class="b" d="M310.96 178.69s-17.37 18.61-6.62 28.88 30.61 8.33 33.09 57.48h85.75s-1.93-32.69 12.13-42.86 36.4-13.79 15.44-43.5z"/><path class="c" d="M345.07 210.48h71.41v274.73h-71.41z"/><path class="d" d="M349.1 218.24h63.09v143.94H349.1zM349.1 375.04h63.09V484.2H349.1z"/><path class="e" d="M349.1 218.24l30.64 55.18 29.75-53.78-60.39-1.4z"/><path class="f" d="M409.49 219.64L349.1 329.06v8.45l63.09-114.35v-3.52h-2.7z"/><path class="g" d="M310.77 115.82s-9.3 1.66-8.1 14 5.85 27.45 10.65 35.85M451.12 115.82s9.3 1.66 8.1 14-5.85 27.45-10.65 35.85"/><path class="h" d="M298.89 73.09a37.07 37.07 0 0 1 8.76-12.17l-1.7-6.33 6.09 1.46s-.24-11.2 1.95-16.07l1.95 4.14s18-24.1 32.62-29.7l-1.95 7.06s34.32-19 44.79-19c-4.38 7.55-4.38 9.74-4.38 9.74s30.43-6.57 44.55 1.7c-13.39 7.3-18.26 9.25-18.26 9.25l29.21 6.09-5.84 5.36S452.5 39 461.27 48.49l-9.74.73-.24 8 7.06-3.65-2.19 8.52 8.28 9.74h-6.33l-.24 23.86s-5.6 23.12-9.25 28v60.86s.73 19-14.61 29c-13.63 6.57-15.82 8.76-19.47 17.53s-21.42 8.76-24.1 9-25.8 0-25.8 0-14.39-1.22-17.8-12.66c-3.65-9.25-19.72-15.82-19.72-15.82s-10.71-3.65-13.63-27.75l-.24-62.51-7.3-26.34V71.14z"/><path class="i" d="M382.31 242.68c-7.09 0-16.2-.09-17.72-.11h-.18c-.65-.06-16-1.5-19.92-14.32-2.72-6.7-14.05-12.58-18.26-14.32-.65-.24-3.6-1.53-6.79-5.64-4.32-5.57-7.15-13.69-8.42-24.14v-.29l-.24-62.17-7.3-26.35V74.42l-8.82 2.43 2-4.73a40 40 0 0 1 8.27-12l-2.4-8.93 7.1 1.71c.09-3.89.5-10.25 2.16-13.92l2.23-5 2.53 5.38c5.57-6.91 19.24-22.71 31.19-27.29l4.51-1.75-1.7 6.18c10.3-5.46 32.2-16.5 40.82-16.5h4.34l-2.18 3.76c-1.3 2.23-2.18 3.95-2.78 5.24 9.11-1.51 30.39-4 42 2.79l3.81 2.24-3.88 2.12c-5 2.72-8.81 4.71-11.64 6.13l26.68 5.56-6.3 5.77c5.5 2 15.21 6.3 21.59 13.22l3.51 3.8-5 .38-2.71 10.52 10.94 12.87h-9.26l-.22 21.67-.07.28c-.56 2.31-5.39 22-9.18 28.16v60.1c0 .74.6 20.43-15.74 31.06l-.28.16c-13.4 6.46-14.91 8.22-18.25 16.24-3.9 9.35-19.83 10.19-25.07 10.47l-1.11.07c-.91.04-4.26.07-8.26.07zm-17.56-5.11c9.25.1 23.58.18 25.44 0l1.3-.08c12-.63 18.94-3.12 20.72-7.4 3.95-9.48 6.84-12.13 20.55-18.75 13.79-9.08 13.35-26.52 13.34-26.7v-61.72l.5-.67c2.41-3.21 6.61-18 8.75-26.81l.27-26h3.4l-5.61-6.6 1.12-4.37-5.87 3 .44-14.53 6.16-.46c-8.28-6.3-19.12-9.37-19.25-9.41l-4.34-1.21 5.57-5.1-32.57-6.84 7.69-3.08s3.82-1.55 13.49-6.7c-14.32-4.57-38.06.45-38.32.51l-3 .65v-3.1c0-.65.26-2.42 2.25-6.43-10.77 3-30.94 13.44-38.95 17.86l-5.2 2.88 2-7.35C331.9 27 318.08 45.38 317.92 45.58l-2.48 3.34-.58-1.23a76.44 76.44 0 0 0-.33 8.27l.07 3.24-5.15-1.23 1 3.77-1.17 1a31.09 31.09 0 0 0-5.38 6.31l4.53-1.25v26.8l7.3 26.34.24 62.69c2.67 21.75 11.89 25.52 12 25.56h.1c.7.29 17.1 7.09 21.1 17.22l.07.2c2.77 9.39 14.44 10.85 15.51 10.97zm89.2-186v1.53l3.46-1.79z"/><path class="j" d="M318.61 118.12V69.44l10.22-18.52 3.65 17 6.09-17 5.11-10.47 5.84 8.28 7.79-12.41 9.25 16.07V27.81l25.56 14.85-10.22-17 45.27 15.26 18.26 29v46.74l-4.87 11.93v44.55l-21.42 17.78s-4.62 11.2-9 15.09-7.55 6.57-13.39 7.06L392.13 197h-18l-6.33 16.07s-9.74 1.95-17-10.22l-4.62-12.66-24.59-17.77v-46.5z"/><path class="k" d="M332.21 81.56l11.29-6.33h79.22l9.9 6.33M347.25 90.87s13.86 6.14 17.82 11.49M375.58 98.2v11.49M375.58 115.83v31.29l-4.16 6.73"/><path class="l" d="M370.24 100.18v7.33M392.24 100.18v7.33"/><path class="k" d="M328.64 101.37s.79 9.31 6.73 13.27M320.72 117.21a7.44 7.44 0 0 1 7.13 4.13M323.29 126.12h5.35M333.79 128.1s16.83 11.09 34.06 0M368.85 136.22s-2.77 3.56-10.69 4.36M328.64 133.03s9.51 11.51 16.83 12.3l-8.42 19M344.78 124.84s7.22 5.06 12.28 0M416.05 90.87s-13.86 6.14-17.82 11.49M387.73 98.2v11.49M387.73 115.83v31.29l4.16 6.73M434.66 101.37s-.79 9.31-6.73 13.27M442.58 117.21a7.44 7.44 0 0 0-7.13 4.13M440.02 126.12h-5.34M429.51 128.1s-16.83 11.09-34.06 0M394.46 136.22s2.77 3.56 10.69 4.36M434.66 133.03s-9.51 11.51-16.83 12.3l8.42 19M418.52 124.84s-7.22 5.06-12.28 0"/><circle class="m" cx="350.83" cy="122.47" r="3.96"/><circle class="m" cx="412.49" cy="122.47" r="3.96"/><path class="n" d="M338.99 110.85l5.8-2.45h21.13M424.33 110.85l-5.8-2.45h-21.14"/><path class="k" d="M335.38 174.74l25.56-10.39M427.94 174.74l-25.55-10.39"/><path class="o" d="M347.26 175.18l15.15-8h40.3l13.74 8-1.29 1.6-7.67 2.09-7.9.85-4.74 2.41-7.17 1.51-7.93.41-8.04-.48-5.96-1.58-5.18-2.74-1.54-.66-4.25-.25-4.64-1.05-2.41-1.38-.47-.73z"/><path class="p" d="M357.07 183.37s27.25 11.23 47.36 0M357.07 187.66v-6.35M404.07 187.66v-6.35M371.42 158.48s.9 11.52 10.48 11.06 10-11.06 10-11.06M391.2 162.02s1.66 4.69 8.61 3.61a5 5 0 0 0 2.57-4.19"/><path class="p" d="M372.38 162.02s-1.66 4.69-8.61 3.61a5 5 0 0 1-2.57-4.19"/><path class="q" d="M332.21 123.12l10.12-4.72 22.76-2.57M431.1 123.12l-10.12-4.72-22.75-2.57"/><path class="r" d="M347.25 193.31v-18.58s.43 3.24 12.42 3.74c8.17 4.9 11.22 5.73 22.73 5.55s17.4-4.67 17.4-4.67 16.3-1.23 16.64-4.61l.38 21.19"/><path class="s" d="M380.66 203.34h3.98v32.29h-3.98z"/><path class="i" d="M414.41 192.34h5.04v33.43h-5.04zM344.41 187.28h5.04v40.14h-5.04z"/><rect class="c" x="272.98" y="279.62" width="4.96" height="45.52" rx="2.48" ry="2.48"/><rect class="c" x="484.99" y="279.62" width="4.96" height="45.52" rx="2.48" ry="2.48"/><path class="c" d="M158.92 235.59h87.68v7.18h-87.68z"/><path class="c" d="M239.42 242.77v-59.9h7.18v59.9zM239.42 148.75v-28.92h7.18v28.92z"/><path class="c" d="M246.6 145.6l20.86 26.48-24.45 18.58-2.49-7.78 15.79-12.78-14.36-18.81 4.65-5.69z"/><path class="c" d="M239.42 148.76l2.53 2.53 3.28-1.27v-4.05l-3.64-2.44-2.17 5.23zM29.54 128.12a5.59 5.59 0 0 0-4.49-2.2 5.5 5.5 0 0 0-2.18.43 5.22 5.22 0 0 0-2.86 2.91 5.74 5.74 0 0 0-.41 2.19 5.81 5.81 0 0 0 .41 2.22 5.35 5.35 0 0 0 2.87 2.94 5.33 5.33 0 0 0 2.14.43 6.07 6.07 0 0 0 4.52-2.14v6.2l-.53.19a15.53 15.53 0 0 1-2.25.63 10.92 10.92 0 0 1-2.06.2 10.53 10.53 0 0 1-7.37-3 11 11 0 0 1-2.34-3.4 10.89 10.89 0 0 1 0-8.56 10.65 10.65 0 0 1 9.75-6.32 11.07 11.07 0 0 1 2.37.25 14.4 14.4 0 0 1 2.45.79zM36.76 135.51q0 3.13 2.94 3.13a2.63 2.63 0 0 0 2.38-1.28h4.68q-1.42 4.71-7.09 4.71a9.31 9.31 0 0 1-3.18-.52 7.1 7.1 0 0 1-2.47-1.48 6.6 6.6 0 0 1-1.59-2.3 7.65 7.65 0 0 1-.56-3 8.48 8.48 0 0 1 .53-3.09 6.49 6.49 0 0 1 1.52-2.34 6.75 6.75 0 0 1 2.39-1.48 9.05 9.05 0 0 1 3.17-.52 8.86 8.86 0 0 1 3.13.52 6.34 6.34 0 0 1 2.35 1.51 6.56 6.56 0 0 1 1.47 2.42 9.6 9.6 0 0 1 .51 3.22v.51zm5.67-2.81a2.91 2.91 0 0 0-1-1.63 3.07 3.07 0 0 0-3.65 0 2.66 2.66 0 0 0-.9 1.66zM60.06 132.27a4.48 4.48 0 0 0-2.54-.86 3.46 3.46 0 0 0-1.3.24 3.21 3.21 0 0 0-1.06.68 3.14 3.14 0 0 0-.71 1 3.43 3.43 0 0 0-.25 1.35 3.36 3.36 0 0 0 .25 1.32 3.23 3.23 0 0 0 .7 1 3 3 0 0 0 1.06.68 3.57 3.57 0 0 0 1.31.24 4 4 0 0 0 2.54-.94v4.12a8.56 8.56 0 0 1-3.4.78 8 8 0 0 1-2.85-.51 7.23 7.23 0 0 1-2.38-1.46 7.15 7.15 0 0 1-1.64-2.27 6.93 6.93 0 0 1-.62-3 7.39 7.39 0 0 1 .59-3 7.13 7.13 0 0 1 1.6-2.33 7.26 7.26 0 0 1 2.42-1.52 8.21 8.21 0 0 1 3-.55 7.2 7.2 0 0 1 3.26.75zM62.49 122.56a2.62 2.62 0 0 1 .21-1.06 2.77 2.77 0 0 1 1.46-1.46 2.72 2.72 0 0 1 2.11 0 2.77 2.77 0 0 1 1.46 1.46 2.71 2.71 0 0 1 0 2.11 2.77 2.77 0 0 1-1.46 1.46 2.71 2.71 0 0 1-2.11 0 2.77 2.77 0 0 1-1.46-1.46 2.63 2.63 0 0 1-.21-1.05zm5.16 5.27v13.72h-4.84v-13.72zM80.06 127.83h4.84v1.74a5.3 5.3 0 0 1 2-1.62 6.29 6.29 0 0 1 2.38-.41 6 6 0 0 1 2.47.47 4.93 4.93 0 0 1 1.75 1.32 3.81 3.81 0 0 1 .8 1.55 8.08 8.08 0 0 1 .21 2v8.72h-4.84v-6.98a7.47 7.47 0 0 0-.15-1.64 2 2 0 0 0-.52-1 1.83 1.83 0 0 0-.72-.45 2.69 2.69 0 0 0-.86-.13 2.39 2.39 0 0 0-1.89.74 3.05 3.05 0 0 0-.66 2.1v7.33h-4.84zM101.07 121.39h4.57l-4.92 8.88h-3.1zM113.08 135.51q0 3.13 2.94 3.13a2.63 2.63 0 0 0 2.38-1.28h4.68q-1.42 4.71-7.09 4.71a9.31 9.31 0 0 1-3.18-.52 7.1 7.1 0 0 1-2.47-1.48 6.6 6.6 0 0 1-1.59-2.3 7.65 7.65 0 0 1-.56-3 8.48 8.48 0 0 1 .53-3.09 6.49 6.49 0 0 1 1.52-2.34 6.75 6.75 0 0 1 2.39-1.48 9.05 9.05 0 0 1 3.17-.52 8.86 8.86 0 0 1 3.13.52 6.34 6.34 0 0 1 2.35 1.51 6.56 6.56 0 0 1 1.47 2.42 9.6 9.6 0 0 1 .51 3.22v.51zm5.67-2.81a2.91 2.91 0 0 0-1-1.63 3.07 3.07 0 0 0-3.65 0 2.66 2.66 0 0 0-.9 1.66zM135.12 131.36a5.66 5.66 0 0 0-2.62-.7 2 2 0 0 0-1.08.27.82.82 0 0 0-.41.72.93.93 0 0 0 .07.39.68.68 0 0 0 .29.28 2.54 2.54 0 0 0 .67.24l1.16.27a5.56 5.56 0 0 1 3 1.43 3.65 3.65 0 0 1 1 2.63 4.78 4.78 0 0 1-.48 2.17 4.61 4.61 0 0 1-1.34 1.62 6.35 6.35 0 0 1-2.06 1 9.17 9.17 0 0 1-2.65.36 10.75 10.75 0 0 1-5.48-1.58l1.76-3.42a6.89 6.89 0 0 0 3.85 1.39 1.89 1.89 0 0 0 1.1-.29.88.88 0 0 0 .43-.75 1.24 1.24 0 0 0-.08-.47.72.72 0 0 0-.28-.32 2.25 2.25 0 0 0-.63-.27q-.41-.12-1.08-.25a6.2 6.2 0 0 1-3.14-1.35 3.34 3.34 0 0 1-.9-2.47 4.86 4.86 0 0 1 .43-2.07 4.29 4.29 0 0 1 1.23-1.56 5.76 5.76 0 0 1 1.94-1 8.64 8.64 0 0 1 2.53-.35 11.47 11.47 0 0 1 4.41.88zM145.41 131.87v9.68h-4.84v-9.68h-1.6v-4h1.6v-4.12h4.84v4.12h2.75v4zM163.91 148.39h-4.84v-20.56h4.84v1.52a5.11 5.11 0 0 1 4.23-2 6.57 6.57 0 0 1 2.74.57 7 7 0 0 1 2.21 1.56 7.1 7.1 0 0 1 1.46 2.33 7.8 7.8 0 0 1 .52 2.86 7.59 7.59 0 0 1-.52 2.83 7.28 7.28 0 0 1-1.44 2.3 6.62 6.62 0 0 1-4.91 2.11 5.71 5.71 0 0 1-4.28-1.76zm6.1-13.66a3.29 3.29 0 0 0-.23-1.22 2.93 2.93 0 0 0-.66-1 3.29 3.29 0 0 0-1-.68 3.15 3.15 0 0 0-2.45 0 3 3 0 0 0-1 .67 3.4 3.4 0 0 0-.67 1 3 3 0 0 0-.25 1.22 3 3 0 0 0 .24 1.2 3 3 0 0 0 .67 1 3.4 3.4 0 0 0 1 .67 3 3 0 0 0 1.22.25 3 3 0 0 0 1.2-.24 3 3 0 0 0 1-.67 3.47 3.47 0 0 0 .67-1 2.83 2.83 0 0 0 .26-1.2zM188.41 127.83h4.84v13.72h-4.87v-1.53a5.08 5.08 0 0 1-4.2 2 6.82 6.82 0 0 1-2.75-.55 6.63 6.63 0 0 1-2.18-1.55 7.09 7.09 0 0 1-1.46-2.33 8 8 0 0 1-.52-2.91 7.73 7.73 0 0 1 .51-2.79 7.18 7.18 0 0 1 1.42-2.31 6.69 6.69 0 0 1 2.17-1.56 6.61 6.61 0 0 1 2.78-.57 5.59 5.59 0 0 1 4.25 1.79zm-6.1 6.82a3.2 3.2 0 0 0 .94 2.27 2.93 2.93 0 0 0 1 .67 3.19 3.19 0 0 0 1.24.24 3.12 3.12 0 0 0 1.22-.24 3 3 0 0 0 1-.67 3.47 3.47 0 0 0 .67-1 2.89 2.89 0 0 0 .25-1.2 3 3 0 0 0-.25-1.22 3.42 3.42 0 0 0-.67-1 3 3 0 0 0-1-.67 3.12 3.12 0 0 0-1.22-.24 3.19 3.19 0 0 0-1.24.24 2.94 2.94 0 0 0-1 .67 3.29 3.29 0 0 0-.66 1 2.93 2.93 0 0 0-.28 1.15zM205.66 131.36a5.66 5.66 0 0 0-2.62-.7 2 2 0 0 0-1.08.27.82.82 0 0 0-.41.72.93.93 0 0 0 .07.39.68.68 0 0 0 .29.28 2.54 2.54 0 0 0 .67.24l1.16.27a5.56 5.56 0 0 1 3 1.43 3.65 3.65 0 0 1 1 2.63 4.78 4.78 0 0 1-.48 2.17 4.61 4.61 0 0 1-1.34 1.62 6.35 6.35 0 0 1-2.06 1 9.17 9.17 0 0 1-2.65.36 10.75 10.75 0 0 1-5.48-1.58l1.76-3.42a6.89 6.89 0 0 0 3.85 1.39 1.89 1.89 0 0 0 1.1-.29.88.88 0 0 0 .43-.75 1.24 1.24 0 0 0-.07-.44.72.72 0 0 0-.28-.32 2.25 2.25 0 0 0-.63-.27q-.41-.12-1.08-.25a6.2 6.2 0 0 1-3.14-1.35 3.34 3.34 0 0 1-.9-2.47 4.86 4.86 0 0 1 .43-2.07 4.29 4.29 0 0 1 1.23-1.56 5.76 5.76 0 0 1 1.94-1 8.64 8.64 0 0 1 2.53-.35 11.47 11.47 0 0 1 4.41.88zM4.84 151.44v22.19H0v-22.19zM18.74 159.92h4.87v13.72h-4.87v-1.52a5.08 5.08 0 0 1-4.2 2 6.82 6.82 0 0 1-2.75-.55 6.63 6.63 0 0 1-2.19-1.54 7.09 7.09 0 0 1-1.46-2.33 8 8 0 0 1-.52-2.91 7.73 7.73 0 0 1 .51-2.79 7.18 7.18 0 0 1 1.42-2.31 6.69 6.69 0 0 1 2.17-1.56 6.61 6.61 0 0 1 2.78-.57 5.59 5.59 0 0 1 4.25 1.79zm-6.1 6.82a3.2 3.2 0 0 0 .9 2.25 2.93 2.93 0 0 0 1 .67 3.19 3.19 0 0 0 1.24.24 3.12 3.12 0 0 0 1.22-.24 3 3 0 0 0 1-.67 3.47 3.47 0 0 0 .67-1 2.89 2.89 0 0 0 .25-1.2 3 3 0 0 0-.25-1.22 3.42 3.42 0 0 0-.67-1 3 3 0 0 0-1-.67 3.12 3.12 0 0 0-1.22-.24 3.19 3.19 0 0 0-1.24.24 2.94 2.94 0 0 0-1 .67 3.29 3.29 0 0 0-.66 1 2.93 2.93 0 0 0-.24 1.17zM40.83 180.48h-4.84v-20.56h4.84v1.52a5.11 5.11 0 0 1 4.23-2 6.57 6.57 0 0 1 2.74.57 7 7 0 0 1 2.21 1.56 7.1 7.1 0 0 1 1.46 2.33 7.8 7.8 0 0 1 .52 2.86 7.59 7.59 0 0 1-.52 2.83 7.28 7.28 0 0 1-1.44 2.3 6.62 6.62 0 0 1-4.91 2.11 5.71 5.71 0 0 1-4.28-1.76zm6.1-13.66a3.29 3.29 0 0 0-.23-1.22 2.93 2.93 0 0 0-.66-1 3.29 3.29 0 0 0-1-.68 3.15 3.15 0 0 0-2.45 0 3 3 0 0 0-1 .67 3.4 3.4 0 0 0-.67 1 3 3 0 0 0-.25 1.22 3 3 0 0 0 .24 1.2 3 3 0 0 0 .67 1 3.4 3.4 0 0 0 1 .67 3 3 0 0 0 1.22.25 3 3 0 0 0 1.2-.24 3 3 0 0 0 1-.67 3.47 3.47 0 0 0 .67-1 2.83 2.83 0 0 0 .25-1.2zM65.32 159.92h4.87v13.72h-4.87v-1.52a5.08 5.08 0 0 1-4.2 2 6.82 6.82 0 0 1-2.75-.55 6.63 6.63 0 0 1-2.19-1.54 7.09 7.09 0 0 1-1.46-2.33 8 8 0 0 1-.52-2.91 7.73 7.73 0 0 1 .51-2.79 7.18 7.18 0 0 1 1.42-2.31 6.69 6.69 0 0 1 2.17-1.56 6.61 6.61 0 0 1 2.78-.57 5.59 5.59 0 0 1 4.25 1.79zm-6.1 6.82a3.2 3.2 0 0 0 .9 2.25 2.93 2.93 0 0 0 1 .67 3.19 3.19 0 0 0 1.24.24 3.12 3.12 0 0 0 1.22-.24 3 3 0 0 0 1-.67 3.47 3.47 0 0 0 .67-1 2.89 2.89 0 0 0 .25-1.2 3 3 0 0 0-.25-1.22 3.42 3.42 0 0 0-.67-1 3 3 0 0 0-1-.67 3.12 3.12 0 0 0-1.22-.24 3.19 3.19 0 0 0-1.24.24 2.94 2.94 0 0 0-1 .67 3.29 3.29 0 0 0-.66 1 2.93 2.93 0 0 0-.21 1.17zM88.83 159.92v12.78a14.32 14.32 0 0 1-.13 2.06 8.9 8.9 0 0 1-.37 1.6 5 5 0 0 1-1 1.64 6.75 6.75 0 0 1-1.64 1.32 8.69 8.69 0 0 1-2.18.88 11 11 0 0 1-5.58-.08 8 8 0 0 1-2.34-1.11 6.46 6.46 0 0 1-1.64-1.66 5.51 5.51 0 0 1-.86-2.07h5.46a2.17 2.17 0 0 0 2.3 1.36 3.08 3.08 0 0 0 2.34-.86 3.31 3.31 0 0 0 .82-2.38v-1.31a8.13 8.13 0 0 1-1 .84 5.85 5.85 0 0 1-1 .55 4.78 4.78 0 0 1-1.07.31 7.49 7.49 0 0 1-1.23.09 7 7 0 0 1-2.7-.51 6.24 6.24 0 0 1-3.52-3.6 7.71 7.71 0 0 1-.5-2.82 7.89 7.89 0 0 1 .53-2.93 7.54 7.54 0 0 1 1.46-2.35 6.7 6.7 0 0 1 2.19-1.58 6.63 6.63 0 0 1 2.77-.58 5.32 5.32 0 0 1 4.09 1.82v-1.41zm-10.86 6.79a3.2 3.2 0 0 0 .9 2.25 2.93 2.93 0 0 0 1 .67 3.19 3.19 0 0 0 1.24.24 3.12 3.12 0 0 0 1.22-.24 3 3 0 0 0 1-.67 3.41 3.41 0 0 0 .67-1 3.07 3.07 0 0 0 0-2.45 3.34 3.34 0 0 0-.68-1 3.09 3.09 0 0 0-1-.67 3.05 3.05 0 0 0-1.19-.24 2.89 2.89 0 0 0-1.2.25 3.46 3.46 0 0 0-1 .67 3.16 3.16 0 0 0-.68 1 2.88 2.88 0 0 0-.28 1.19zM96.79 167.59q0 3.13 2.94 3.13a2.63 2.63 0 0 0 2.38-1.28h4.68q-1.42 4.71-7.09 4.71a9.31 9.31 0 0 1-3.18-.52 7.1 7.1 0 0 1-2.47-1.48 6.6 6.6 0 0 1-1.59-2.3 7.65 7.65 0 0 1-.56-3 8.48 8.48 0 0 1 .53-3.09 6.49 6.49 0 0 1 1.52-2.34 6.75 6.75 0 0 1 2.4-1.5 9.05 9.05 0 0 1 3.17-.52 8.86 8.86 0 0 1 3.13.52 6.34 6.34 0 0 1 2.35 1.51 6.56 6.56 0 0 1 1.47 2.42 9.6 9.6 0 0 1 .51 3.22v.51zm5.67-2.81a2.91 2.91 0 0 0-1-1.63 3.07 3.07 0 0 0-3.65 0 2.66 2.66 0 0 0-.9 1.66zM129.42 180.48v-8.18a5.63 5.63 0 0 1-4.25 1.76 6.62 6.62 0 0 1-4.92-2.14 7.25 7.25 0 0 1-1.44-2.31 7.63 7.63 0 0 1-.52-2.82 7.71 7.71 0 0 1 .53-2.89 7.28 7.28 0 0 1 1.47-2.33 6.81 6.81 0 0 1 2.19-1.55 6.61 6.61 0 0 1 2.73-.56 5.08 5.08 0 0 1 4.2 2v-1.54h4.84v20.56zm-6.1-13.74a3.2 3.2 0 0 0 .9 2.25 2.93 2.93 0 0 0 1 .67 3.19 3.19 0 0 0 1.24.24 3.12 3.12 0 0 0 1.22-.24 3 3 0 0 0 1-.67 3.42 3.42 0 0 0 .67-1 3 3 0 0 0 .25-1.22 2.89 2.89 0 0 0-.25-1.2 3.48 3.48 0 0 0-.67-1 3 3 0 0 0-1-.67 3.19 3.19 0 0 0-2.43 0 2.94 2.94 0 0 0-1 .67 3.51 3.51 0 0 0-.67 1 2.79 2.79 0 0 0-.26 1.17zM142.87 159.92v7.73q0 2.54 2.46 2.54a2.21 2.21 0 0 0 2.46-2.54v-7.73h4.84v8.66a4.91 4.91 0 0 1-1.83 4.17 11.45 11.45 0 0 1-10.94 0 4.9 4.9 0 0 1-1.83-4.17v-8.66zM160.25 167.59q0 3.13 2.94 3.13a2.63 2.63 0 0 0 2.38-1.28h4.68q-1.42 4.71-7.09 4.71a9.31 9.31 0 0 1-3.18-.52 7.1 7.1 0 0 1-2.47-1.48 6.6 6.6 0 0 1-1.59-2.3 7.65 7.65 0 0 1-.56-3 8.48 8.48 0 0 1 .53-3.09 6.49 6.49 0 0 1 1.52-2.34 6.75 6.75 0 0 1 2.39-1.48 9.05 9.05 0 0 1 3.17-.52 8.86 8.86 0 0 1 3.13.52 6.34 6.34 0 0 1 2.35 1.51 6.56 6.56 0 0 1 1.47 2.42 9.6 9.6 0 0 1 .51 3.22v.51zm5.67-2.81a2.91 2.91 0 0 0-1-1.63 3.07 3.07 0 0 0-3.65 0 2.66 2.66 0 0 0-.9 1.66zM187.71 163.92v9.68h-4.84v-9.68h-1.62v-4h1.6v-4.12h4.84v4.12h2.75v4zM197.12 159.92v7.73q0 2.54 2.46 2.54a2.21 2.21 0 0 0 2.46-2.54v-7.73h4.84v8.66a4.91 4.91 0 0 1-1.83 4.17 11.45 11.45 0 0 1-10.94 0 4.9 4.9 0 0 1-1.83-4.17v-8.66zM47.25 192.01h4.84v2.25a5.56 5.56 0 0 1 1.9-1.89 5.1 5.1 0 0 1 2.62-.66h.41a2.94 2.94 0 0 1 .52.05v4.63a4.6 4.6 0 0 0-2.09-.48 3.12 3.12 0 0 0-2.53 1 4.45 4.45 0 0 0-.84 2.93v5.88h-4.83zM64.25 199.68q0 3.13 2.94 3.13a2.63 2.63 0 0 0 2.38-1.28h4.68q-1.42 4.71-7.09 4.71a9.31 9.31 0 0 1-3.18-.52 7.1 7.1 0 0 1-2.47-1.48 6.6 6.6 0 0 1-1.59-2.3 7.65 7.65 0 0 1-.56-3 8.48 8.48 0 0 1 .53-3.09 6.49 6.49 0 0 1 1.52-2.34 6.75 6.75 0 0 1 2.39-1.48 9.05 9.05 0 0 1 3.17-.52 8.86 8.86 0 0 1 3.13.52 6.34 6.34 0 0 1 2.35 1.51 6.56 6.56 0 0 1 1.47 2.42 9.6 9.6 0 0 1 .51 3.22v.51zm5.7-2.76a2.91 2.91 0 0 0-1-1.63 3.07 3.07 0 0 0-3.65 0 2.66 2.66 0 0 0-.9 1.66zM87.57 196.45a4.48 4.48 0 0 0-2.54-.86 3.46 3.46 0 0 0-1.3.24 3.21 3.21 0 0 0-1.06.68 3.14 3.14 0 0 0-.71 1 3.43 3.43 0 0 0-.25 1.35 3.36 3.36 0 0 0 .25 1.32 3.23 3.23 0 0 0 .7 1 3 3 0 0 0 1.06.68 3.57 3.57 0 0 0 1.31.24 4 4 0 0 0 2.54-.94v4.12a8.56 8.56 0 0 1-3.4.78 8 8 0 0 1-2.85-.51 7.23 7.23 0 0 1-2.38-1.46 7.15 7.15 0 0 1-1.64-2.27 6.93 6.93 0 0 1-.62-3 7.39 7.39 0 0 1 .59-3 7.13 7.13 0 0 1 1.6-2.33 7.26 7.26 0 0 1 2.42-1.52 8.21 8.21 0 0 1 3-.55 7.2 7.2 0 0 1 3.26.75zM90.99 183.53h4.84v10.21a5.3 5.3 0 0 1 2-1.62 6.29 6.29 0 0 1 2.38-.41 5.08 5.08 0 0 1 3.92 1.43 5.47 5.47 0 0 1 1.32 3.86v8.72h-4.84v-6.93a7.16 7.16 0 0 0-.16-1.68 2 2 0 0 0-.53-1 2.27 2.27 0 0 0-1.55-.56 2.39 2.39 0 0 0-1.89.74 3.05 3.05 0 0 0-.66 2.1v7.33h-4.84zM113.11 199.68q0 3.13 2.94 3.13a2.63 2.63 0 0 0 2.38-1.28h4.68q-1.42 4.71-7.09 4.71a9.31 9.31 0 0 1-3.18-.52 7.1 7.1 0 0 1-2.47-1.48 6.6 6.6 0 0 1-1.59-2.3 7.65 7.65 0 0 1-.56-3 8.48 8.48 0 0 1 .53-3.09 6.49 6.49 0 0 1 1.52-2.34 6.75 6.75 0 0 1 2.39-1.48 9.05 9.05 0 0 1 3.17-.52 8.86 8.86 0 0 1 3.13.52 6.34 6.34 0 0 1 2.35 1.51 6.56 6.56 0 0 1 1.47 2.42 9.6 9.6 0 0 1 .51 3.22v.51zm5.67-2.81a2.91 2.91 0 0 0-1-1.63 3.07 3.07 0 0 0-3.65 0 2.66 2.66 0 0 0-.88 1.68zM126.05 192.01h4.84v2.25a5.56 5.56 0 0 1 1.9-1.89 5.1 5.1 0 0 1 2.62-.66h.41a2.94 2.94 0 0 1 .52.05v4.63a4.6 4.6 0 0 0-2.09-.47 3.12 3.12 0 0 0-2.53 1 4.45 4.45 0 0 0-.84 2.93v5.88h-4.83zM148.99 196.45a4.48 4.48 0 0 0-2.54-.86 3.46 3.46 0 0 0-1.3.24 3.21 3.21 0 0 0-1.06.68 3.14 3.14 0 0 0-.71 1 3.43 3.43 0 0 0-.25 1.35 3.36 3.36 0 0 0 .25 1.32 3.23 3.23 0 0 0 .7 1 3 3 0 0 0 1.06.68 3.57 3.57 0 0 0 1.31.24 4 4 0 0 0 2.54-.94v4.12a8.56 8.56 0 0 1-3.4.78 8 8 0 0 1-2.85-.51 7.23 7.23 0 0 1-2.38-1.46 7.15 7.15 0 0 1-1.64-2.27 6.93 6.93 0 0 1-.62-3 7.39 7.39 0 0 1 .59-3 7.13 7.13 0 0 1 1.6-2.33 7.26 7.26 0 0 1 2.42-1.52 8.21 8.21 0 0 1 3-.55 7.2 7.2 0 0 1 3.26.75zM152.42 183.53h4.83v10.21a5.3 5.3 0 0 1 2-1.62 6.29 6.29 0 0 1 2.38-.41 5.08 5.08 0 0 1 3.92 1.43 5.47 5.47 0 0 1 1.32 3.86v8.72h-4.84v-6.93a7.16 7.16 0 0 0-.16-1.68 2 2 0 0 0-.53-1 2.27 2.27 0 0 0-1.55-.56 2.39 2.39 0 0 0-1.89.74 3.05 3.05 0 0 0-.66 2.1v7.33h-4.84zM174.53 199.68q0 3.13 2.94 3.13a2.63 2.63 0 0 0 2.38-1.28h4.68q-1.42 4.71-7.09 4.71a9.31 9.31 0 0 1-3.18-.52 7.1 7.1 0 0 1-2.47-1.48 6.6 6.6 0 0 1-1.59-2.3 7.65 7.65 0 0 1-.56-3 8.48 8.48 0 0 1 .53-3.09 6.49 6.49 0 0 1 1.52-2.34 6.75 6.75 0 0 1 2.39-1.48 9.05 9.05 0 0 1 3.17-.52 8.86 8.86 0 0 1 3.13.52 6.34 6.34 0 0 1 2.35 1.51 6.56 6.56 0 0 1 1.52 2.38 9.6 9.6 0 0 1 .51 3.22v.51zm5.67-2.81a2.91 2.91 0 0 0-1-1.63 3.07 3.07 0 0 0-3.65 0 2.66 2.66 0 0 0-.9 1.66zM196.56 195.54a5.66 5.66 0 0 0-2.62-.7 2 2 0 0 0-1.08.27.82.82 0 0 0-.41.72.93.93 0 0 0 .07.39.68.68 0 0 0 .29.28 2.54 2.54 0 0 0 .67.24l1.16.27a5.56 5.56 0 0 1 3 1.43 3.65 3.65 0 0 1 1 2.63 4.78 4.78 0 0 1-.48 2.17 4.61 4.61 0 0 1-1.34 1.62 6.35 6.35 0 0 1-2.06 1 9.17 9.17 0 0 1-2.65.36 10.75 10.75 0 0 1-5.48-1.58l1.76-3.42a6.89 6.89 0 0 0 3.86 1.4 1.89 1.89 0 0 0 1.1-.29.88.88 0 0 0 .43-.75 1.24 1.24 0 0 0-.07-.44.72.72 0 0 0-.28-.32 2.25 2.25 0 0 0-.63-.27q-.41-.12-1.08-.25a6.2 6.2 0 0 1-3.17-1.38 3.34 3.34 0 0 1-.9-2.47 4.86 4.86 0 0 1 .43-2.07 4.29 4.29 0 0 1 1.23-1.56 5.76 5.76 0 0 1 1.94-1 8.64 8.64 0 0 1 2.53-.35 11.47 11.47 0 0 1 4.41.88zM200.84 203.16a3.13 3.13 0 0 1 .24-1.22 3.15 3.15 0 1 1 0 2.43 3.13 3.13 0 0 1-.24-1.21zM151.41 466.04h16.94v27.93h-16.94v28.86h-33.88v-28.86H49.75v-23.46l53.62-88.07h48zm-33.89 0v-55.3l-32.21 55.3zM177.48 452.45a99.6 99.6 0 0 1 4.38-30.44 70.23 70.23 0 0 1 12.29-23.37 55.45 55.45 0 0 1 18.81-15 55 55 0 0 1 66.93 15 71.34 71.34 0 0 1 12.2 23.37 108.09 108.09 0 0 1 0 60.88 72.47 72.47 0 0 1-12.2 23.46 53.83 53.83 0 0 1-18.81 15.08 54.83 54.83 0 0 1-66.93-15.08 71.33 71.33 0 0 1-12.3-23.43 99.61 99.61 0 0 1-4.37-30.47zm36.12 0a79.16 79.16 0 0 0 1.65 16.94 49.27 49.27 0 0 0 4.75 13.22 25.55 25.55 0 0 0 7.35 8.66 16.65 16.65 0 0 0 19.27 0 24.3 24.3 0 0 0 7.35-8.66 51.57 51.57 0 0 0 4.65-13.22 86 86 0 0 0 0-33.79 50 50 0 0 0-4.65-13.22 24.51 24.51 0 0 0-7.35-8.56 16.64 16.64 0 0 0-19.27 0 25.8 25.8 0 0 0-7.35 8.56 47.81 47.81 0 0 0-4.75 13.22 79.54 79.54 0 0 0-1.65 16.85zM409.46 466.04h16.94v27.93h-16.94v28.86h-33.88v-28.86H307.8v-23.46l53.62-88.07h48zm-33.89 0v-55.3l-32.21 55.3z"/></svg>