<svg data-name="Calque 1" xmlns="http://www.w3.org/2000/svg" viewBox="0 0 129.47 96.2"><title>menu_icon</title><path d="M121.69 15.55H7.77A7.74 7.74 0 0 1-.01 7.77 7.74 7.74 0 0 1 7.77-.01h113.92a7.74 7.74 0 0 1 7.78 7.78 7.65 7.65 0 0 1-7.78 7.78zM62.93 56.16H7.77a7.74 7.74 0 0 1-7.78-7.78 7.74 7.74 0 0 1 7.78-7.78h55.16a7.74 7.74 0 0 1 7.78 7.78 7.65 7.65 0 0 1-7.78 7.78zM91.73 96.22h-84a7.74 7.74 0 0 1-7.78-7.78 7.74 7.74 0 0 1 7.78-7.78h83.81a7.74 7.74 0 0 1 7.84 7.76 7.54 7.54 0 0 1-7.65 7.8z"/></svg>