<svg xmlns="http://www.w3.org/2000/svg" viewBox="0 0 506.61 526.74"><defs><style>.a,.b,.e{fill:#1a0c2b;}.a,.b{stroke:#7647f9;}.a,.b,.g,.j,.k,.l,.n,.p,.q,.r{stroke-miterlimit:10;}.a,.p,.r{stroke-width:5px;}.b,.g,.j,.k,.n,.q{stroke-width:4px;}.c{fill:#7647f9;}.d{fill:#371f66;}.f{fill:#3bffbe;}.g{fill:#f8e8d9;stroke:#f5d6ba;}.h{fill:#fff;}.i{fill:#ebebeb;}.j{fill:#f7e9da;}.j,.r{stroke:#ebebeb;}.k,.l,.n,.p,.q,.r{fill:none;}.k,.l{stroke:#f4d7bc;}.l{stroke-width:2px;}.m{fill:#73b4cd;}.n{stroke:#fff;}.o{fill:#f6f6f6;}.p{stroke:#e7c4ac;}.q{stroke:#e1c1ae;}.s{fill:#e2e2e5;}</style></defs><title>404</title><path class="a" d="M924.23,610.11l23.69,15.21L974.62,679s13.07,14.71-13.35,51.47c0,62.37-.54,159.05-.54,159.05H749.11V729.4s-28.32-29.69-15-53.65,27-50.93,27-50.93L788.87,606Z" transform="translate(-473.75 -407.08)"/><path class="b" d="M784.71,585.77s-17.37,18.61-6.62,28.88,30.61,8.33,33.09,57.48h85.75s-1.93-32.69,12.13-42.86,36.4-13.79,15.44-43.5Z" transform="translate(-473.75 -407.08)"/><rect class="c" x="345.07" y="210.48" width="71.41" height="274.73"/><rect class="d" x="349.1" y="218.24" width="63.09" height="143.94"/><rect class="d" x="349.1" y="375.04" width="63.09" height="109.16"/><polygon class="e" points="349.1 218.24 379.74 273.42 409.49 219.64 349.1 218.24"/><polygon class="f" points="409.49 219.64 349.1 329.06 349.1 337.51 412.19 223.16 412.19 219.64 409.49 219.64"/><path class="g" d="M784.52,522.9s-9.3,1.66-8.1,14,5.85,27.45,10.65,35.85" transform="translate(-473.75 -407.08)"/><path class="g" d="M924.87,522.9s9.3,1.66,8.1,14-5.85,27.45-10.65,35.85" transform="translate(-473.75 -407.08)"/><path class="h" d="M772.64,480.17A37.07,37.07,0,0,1,781.4,468l-1.7-6.33,6.09,1.46s-.24-11.2,1.95-16.07l1.95,4.14s18-24.1,32.62-29.7l-1.95,7.06s34.32-19,44.79-19c-4.38,7.55-4.38,9.74-4.38,9.74s30.43-6.57,44.55,1.7c-13.39,7.3-18.26,9.25-18.26,9.25l29.21,6.09-5.84,5.36s15.82,4.38,24.59,13.87l-9.74.73-.24,8,7.06-3.65-2.19,8.52,8.28,9.74h-6.33l-.24,23.86s-5.6,23.12-9.25,28v60.86s.73,19-14.61,29c-13.63,6.57-15.82,8.76-19.47,17.53s-21.42,8.76-24.1,9-25.8,0-25.8,0S824,645.94,820.59,634.5c-3.65-9.25-19.72-15.82-19.72-15.82s-10.71-3.65-13.63-27.75L787,528.42l-7.3-26.34V478.22Z" transform="translate(-473.75 -407.08)"/><path class="i" d="M856.06,649.76c-7.09,0-16.2-.09-17.72-.11h-.18c-.65-.06-16-1.5-19.92-14.32-2.72-6.7-14.05-12.58-18.26-14.32-.65-.24-3.6-1.53-6.79-5.64-4.32-5.57-7.15-13.69-8.42-24.14l0-.29-.24-62.17-7.3-26.35V481.5l-8.82,2.43,2-4.73a40,40,0,0,1,8.27-12l-2.4-8.93,7.1,1.71c.09-3.89.5-10.25,2.16-13.92l2.23-5,2.53,5.38c5.57-6.91,19.24-22.71,31.19-27.29L826,417.4l-1.7,6.18c10.3-5.46,32.2-16.5,40.82-16.5h4.34l-2.18,3.76c-1.3,2.23-2.18,3.95-2.78,5.24,9.11-1.51,30.39-4,42,2.79l3.81,2.24-3.88,2.12c-5,2.72-8.81,4.71-11.64,6.13l26.68,5.56-6.3,5.77c5.5,2,15.21,6.3,21.59,13.22l3.51,3.8-5,.38-2.71,10.52,10.94,12.87h-9.26l-.22,21.67-.07.28c-.56,2.31-5.39,22-9.18,28.16v60.1c0,.74.6,20.43-15.74,31.06l-.28.16c-13.4,6.46-14.91,8.22-18.25,16.24-3.9,9.35-19.83,10.19-25.07,10.47l-1.11.07C863.41,649.73,860.06,649.76,856.06,649.76Zm-17.56-5.11c9.25.1,23.58.18,25.44,0l1.3-.08c12-.63,18.94-3.12,20.72-7.4,3.95-9.48,6.84-12.13,20.55-18.75,13.79-9.08,13.35-26.52,13.34-26.7V530l.5-.67c2.41-3.21,6.61-18,8.75-26.81l.27-26h3.4l-5.61-6.6,1.12-4.37-5.87,3,.44-14.53,6.16-.46c-8.28-6.3-19.12-9.37-19.25-9.41l-4.34-1.21,5.57-5.1L878.42,431l7.69-3.08s3.82-1.55,13.49-6.7c-14.32-4.57-38.06.45-38.32.51l-3,.65v-3.1c0-.65.26-2.42,2.25-6.43-10.77,3-30.94,13.44-38.95,17.86l-5.2,2.88,2-7.35c-12.73,7.84-26.55,26.22-26.71,26.42L789.19,456l-.58-1.23a76.44,76.44,0,0,0-.33,8.27l.07,3.24-5.15-1.23,1,3.77-1.17,1a31.09,31.09,0,0,0-5.38,6.31l4.53-1.25v26.8l7.3,26.34.24,62.69c2.67,21.75,11.89,25.52,12,25.56l.1,0c.7.29,17.1,7.09,21.1,17.22l.07.2C825.76,643.08,837.43,644.54,838.5,644.66Zm89.2-186,0,1.53,3.46-1.79Z" transform="translate(-473.75 -407.08)"/><path class="j" d="M792.36,525.2V476.52L802.58,458l3.65,17,6.09-17,5.11-10.47,5.84,8.28,7.79-12.41,9.25,16.07V434.89l25.56,14.85-10.22-17L900.92,448l18.26,29v46.74l-4.87,11.93v44.55L892.89,598s-4.62,11.2-9,15.09-7.55,6.57-13.39,7.06l-4.62-16.07h-18l-6.33,16.07s-9.74,1.95-17-10.22l-4.62-12.66-24.59-17.77V533Z" transform="translate(-473.75 -407.08)"/><polyline class="k" points="332.21 81.56 343.5 75.23 422.72 75.23 432.62 81.56"/><path class="k" d="M821,497.95s13.86,6.14,17.82,11.49" transform="translate(-473.75 -407.08)"/><line class="k" x1="375.58" y1="98.2" x2="375.58" y2="109.69"/><polyline class="k" points="375.58 115.83 375.58 147.12 371.42 153.85"/><line class="l" x1="370.24" y1="100.18" x2="370.24" y2="107.51"/><line class="l" x1="392.24" y1="100.18" x2="392.24" y2="107.51"/><path class="k" d="M802.39,508.45s.79,9.31,6.73,13.27" transform="translate(-473.75 -407.08)"/><path class="k" d="M794.47,524.29a7.44,7.44,0,0,1,7.13,4.13" transform="translate(-473.75 -407.08)"/><line class="k" x1="323.29" y1="126.12" x2="328.64" y2="126.12"/><path class="k" d="M807.54,535.18s16.83,11.09,34.06,0" transform="translate(-473.75 -407.08)"/><path class="k" d="M842.6,543.3s-2.77,3.56-10.69,4.36" transform="translate(-473.75 -407.08)"/><path class="k" d="M802.39,540.11s9.51,11.51,16.83,12.3l-8.42,19" transform="translate(-473.75 -407.08)"/><path class="k" d="M818.53,531.92s7.22,5.06,12.28,0" transform="translate(-473.75 -407.08)"/><path class="k" d="M889.8,497.95s-13.86,6.14-17.82,11.49" transform="translate(-473.75 -407.08)"/><line class="k" x1="387.73" y1="98.2" x2="387.73" y2="109.69"/><polyline class="k" points="387.73 115.83 387.73 147.12 391.89 153.85"/><path class="k" d="M908.41,508.45s-.79,9.31-6.73,13.27" transform="translate(-473.75 -407.08)"/><path class="k" d="M916.33,524.29a7.44,7.44,0,0,0-7.13,4.13" transform="translate(-473.75 -407.08)"/><line class="k" x1="440.02" y1="126.12" x2="434.68" y2="126.12"/><path class="k" d="M903.26,535.18s-16.83,11.09-34.06,0" transform="translate(-473.75 -407.08)"/><path class="k" d="M868.21,543.3s2.77,3.56,10.69,4.36" transform="translate(-473.75 -407.08)"/><path class="k" d="M908.41,540.11s-9.51,11.51-16.83,12.3l8.42,19" transform="translate(-473.75 -407.08)"/><path class="k" d="M892.27,531.92s-7.22,5.06-12.28,0" transform="translate(-473.75 -407.08)"/><circle class="m" cx="350.83" cy="122.47" r="3.96"/><circle class="m" cx="412.49" cy="122.47" r="3.96"/><polyline class="n" points="338.99 110.85 344.79 108.4 365.92 108.4"/><polyline class="n" points="424.33 110.85 418.53 108.4 397.39 108.4"/><line class="k" x1="335.38" y1="174.74" x2="360.94" y2="164.35"/><line class="k" x1="427.94" y1="174.74" x2="402.39" y2="164.35"/><polygon class="o" points="347.26 175.18 362.41 167.18 373.5 167.18 402.71 167.18 416.45 175.18 415.16 176.78 407.49 178.87 399.59 179.72 394.85 182.13 387.68 183.64 379.75 184.05 371.71 183.57 365.75 181.99 360.57 179.25 359.03 178.59 354.78 178.34 350.14 177.29 347.73 175.91 347.26 175.18"/><path class="p" d="M830.82,590.45s27.25,11.23,47.36,0" transform="translate(-473.75 -407.08)"/><line class="p" x1="357.07" y1="187.66" x2="357.07" y2="181.31"/><line class="p" x1="404.07" y1="187.66" x2="404.07" y2="181.31"/><path class="p" d="M845.17,565.56s.9,11.52,10.48,11.06,10-11.06,10-11.06" transform="translate(-473.75 -407.08)"/><path class="p" d="M864.95,569.1s1.66,4.69,8.61,3.61a5,5,0,0,0,2.57-4.19" transform="translate(-473.75 -407.08)"/><path class="p" d="M846.13,569.1s-1.66,4.69-8.61,3.61a5,5,0,0,1-2.57-4.19" transform="translate(-473.75 -407.08)"/><polyline class="q" points="332.21 123.12 342.33 118.4 365.09 115.83"/><polyline class="q" points="431.1 123.12 420.98 118.4 398.23 115.83"/><path class="r" d="M821,600.39V581.81s.43,3.24,12.42,3.74c8.17,4.9,11.22,5.73,22.73,5.55s17.4-4.67,17.4-4.67,16.3-1.23,16.64-4.61l.38,21.19" transform="translate(-473.75 -407.08)"/><rect class="s" x="380.66" y="203.34" width="3.98" height="32.29"/><rect class="i" x="414.41" y="192.34" width="5.04" height="33.43"/><rect class="i" x="344.41" y="187.28" width="5.04" height="40.14"/><rect class="c" x="272.98" y="279.62" width="4.96" height="45.52" rx="2.48" ry="2.48"/><rect class="c" x="484.99" y="279.62" width="4.96" height="45.52" rx="2.48" ry="2.48"/><rect class="c" x="158.92" y="235.59" width="87.68" height="7.18"/><rect class="c" x="686.81" y="616.31" width="59.9" height="7.18" transform="translate(-376.89 929.58) rotate(-90)"/><rect class="c" x="702.3" y="537.78" width="28.92" height="7.18" transform="translate(-298.36 851.05) rotate(-90)"/><polygon class="c" points="246.6 145.6 267.46 172.08 243.01 190.66 240.52 182.88 256.31 170.1 241.95 151.29 246.6 145.6"/><polygon class="c" points="239.42 148.76 241.95 151.29 245.23 150.02 245.23 145.97 241.59 143.53 239.42 148.76"/><path class="c" d="M503.29,535.2A5.59,5.59,0,0,0,498.8,533a5.5,5.5,0,0,0-2.18.43,5.22,5.22,0,0,0-2.86,2.91,5.74,5.74,0,0,0-.41,2.19,5.81,5.81,0,0,0,.41,2.22,5.35,5.35,0,0,0,2.87,2.94,5.33,5.33,0,0,0,2.14.43,6.07,6.07,0,0,0,4.52-2.14v6.2l-.53.19a15.53,15.53,0,0,1-2.25.63,10.92,10.92,0,0,1-2.06.2,10.53,10.53,0,0,1-7.37-3,11,11,0,0,1-2.34-3.4,10.89,10.89,0,0,1,0-8.56,10.65,10.65,0,0,1,9.75-6.32,11.07,11.07,0,0,1,2.37.25,14.4,14.4,0,0,1,2.45.79Z" transform="translate(-473.75 -407.08)"/><path class="c" d="M510.51,542.59q0,3.13,2.94,3.13a2.63,2.63,0,0,0,2.38-1.28h4.68q-1.42,4.71-7.09,4.71a9.31,9.31,0,0,1-3.18-.52,7.1,7.1,0,0,1-2.47-1.48,6.6,6.6,0,0,1-1.59-2.3,7.65,7.65,0,0,1-.56-3,8.48,8.48,0,0,1,.53-3.09,6.49,6.49,0,0,1,1.52-2.34,6.75,6.75,0,0,1,2.39-1.48,9.05,9.05,0,0,1,3.17-.52,8.86,8.86,0,0,1,3.13.52,6.34,6.34,0,0,1,2.35,1.51,6.56,6.56,0,0,1,1.47,2.42,9.6,9.6,0,0,1,.51,3.22v.51Zm5.67-2.81a2.91,2.91,0,0,0-1-1.63,3.07,3.07,0,0,0-3.65,0,2.66,2.66,0,0,0-.9,1.66Z" transform="translate(-473.75 -407.08)"/><path class="c" d="M533.81,539.35a4.48,4.48,0,0,0-2.54-.86,3.46,3.46,0,0,0-1.3.24,3.21,3.21,0,0,0-1.06.68,3.14,3.14,0,0,0-.71,1,3.43,3.43,0,0,0-.25,1.35,3.36,3.36,0,0,0,.25,1.32,3.23,3.23,0,0,0,.7,1,3,3,0,0,0,1.06.68,3.57,3.57,0,0,0,1.31.24,4,4,0,0,0,2.54-.94v4.12a8.56,8.56,0,0,1-3.4.78,8,8,0,0,1-2.85-.51,7.23,7.23,0,0,1-2.38-1.46,7.15,7.15,0,0,1-1.64-2.27,6.93,6.93,0,0,1-.62-3,7.39,7.39,0,0,1,.59-3,7.13,7.13,0,0,1,1.6-2.33,7.26,7.26,0,0,1,2.42-1.52,8.21,8.21,0,0,1,3-.55,7.2,7.2,0,0,1,3.26.75Z" transform="translate(-473.75 -407.08)"/><path class="c" d="M536.24,529.64a2.62,2.62,0,0,1,.21-1.06,2.77,2.77,0,0,1,1.46-1.46,2.72,2.72,0,0,1,2.11,0,2.77,2.77,0,0,1,1.46,1.46,2.71,2.71,0,0,1,0,2.11,2.77,2.77,0,0,1-1.46,1.46,2.71,2.71,0,0,1-2.11,0,2.77,2.77,0,0,1-1.46-1.46A2.63,2.63,0,0,1,536.24,529.64Zm5.16,5.27v13.72h-4.84V534.91Z" transform="translate(-473.75 -407.08)"/><path class="c" d="M553.81,534.91h4.84v1.74a5.3,5.3,0,0,1,2-1.62,6.29,6.29,0,0,1,2.38-.41,6,6,0,0,1,2.47.47,4.93,4.93,0,0,1,1.75,1.32,3.81,3.81,0,0,1,.8,1.55,8.08,8.08,0,0,1,.21,2v8.72h-4.84V541.7a7.47,7.47,0,0,0-.15-1.64,2,2,0,0,0-.52-1,1.83,1.83,0,0,0-.72-.45,2.69,2.69,0,0,0-.86-.13,2.39,2.39,0,0,0-1.89.74,3.05,3.05,0,0,0-.66,2.1v7.33h-4.84Z" transform="translate(-473.75 -407.08)"/><path class="c" d="M574.82,528.47h4.57l-4.92,8.88h-3.1Z" transform="translate(-473.75 -407.08)"/><path class="c" d="M586.83,542.59q0,3.13,2.94,3.13a2.63,2.63,0,0,0,2.38-1.28h4.68q-1.42,4.71-7.09,4.71a9.31,9.31,0,0,1-3.18-.52,7.1,7.1,0,0,1-2.47-1.48,6.6,6.6,0,0,1-1.59-2.3,7.65,7.65,0,0,1-.56-3,8.48,8.48,0,0,1,.53-3.09,6.49,6.49,0,0,1,1.52-2.34,6.75,6.75,0,0,1,2.39-1.48,9.05,9.05,0,0,1,3.17-.52,8.86,8.86,0,0,1,3.13.52,6.34,6.34,0,0,1,2.35,1.51,6.56,6.56,0,0,1,1.47,2.42,9.6,9.6,0,0,1,.51,3.22v.51Zm5.67-2.81a2.91,2.91,0,0,0-1-1.63,3.07,3.07,0,0,0-3.65,0,2.66,2.66,0,0,0-.9,1.66Z" transform="translate(-473.75 -407.08)"/><path class="c" d="M608.87,538.44a5.66,5.66,0,0,0-2.62-.7,2,2,0,0,0-1.08.27.82.82,0,0,0-.41.72.93.93,0,0,0,.07.39.68.68,0,0,0,.29.28,2.54,2.54,0,0,0,.67.24l1.16.27a5.56,5.56,0,0,1,3,1.43,3.65,3.65,0,0,1,1,2.63,4.78,4.78,0,0,1-.48,2.17,4.61,4.61,0,0,1-1.34,1.62,6.35,6.35,0,0,1-2.06,1,9.17,9.17,0,0,1-2.65.36,10.75,10.75,0,0,1-5.48-1.58l1.76-3.42a6.89,6.89,0,0,0,3.85,1.39,1.89,1.89,0,0,0,1.1-.29.88.88,0,0,0,.43-.75A1.24,1.24,0,0,0,606,544a.72.72,0,0,0-.28-.32,2.25,2.25,0,0,0-.63-.27q-.41-.12-1.08-.25a6.2,6.2,0,0,1-3.14-1.35,3.34,3.34,0,0,1-.9-2.47,4.86,4.86,0,0,1,.43-2.07,4.29,4.29,0,0,1,1.23-1.56,5.76,5.76,0,0,1,1.94-1,8.64,8.64,0,0,1,2.53-.35,11.47,11.47,0,0,1,4.41.88Z" transform="translate(-473.75 -407.08)"/><path class="c" d="M619.16,538.95v9.68h-4.84v-9.68h-1.6v-4h1.6v-4.12h4.84v4.12h2.75v4Z" transform="translate(-473.75 -407.08)"/><path class="c" d="M637.66,555.47h-4.84V534.91h4.84v1.52a5.11,5.11,0,0,1,4.23-2,6.57,6.57,0,0,1,2.74.57,7,7,0,0,1,2.21,1.56,7.1,7.1,0,0,1,1.46,2.33,7.8,7.8,0,0,1,.52,2.86,7.59,7.59,0,0,1-.52,2.83,7.28,7.28,0,0,1-1.44,2.3,6.62,6.62,0,0,1-4.91,2.11,5.71,5.71,0,0,1-4.28-1.76Zm6.1-13.66a3.29,3.29,0,0,0-.23-1.22,2.93,2.93,0,0,0-.66-1,3.29,3.29,0,0,0-1-.68,3.15,3.15,0,0,0-2.45,0,3,3,0,0,0-1,.67,3.4,3.4,0,0,0-.67,1,3,3,0,0,0-.25,1.22,3,3,0,0,0,.24,1.2,3,3,0,0,0,.67,1,3.4,3.4,0,0,0,1,.67,3,3,0,0,0,1.22.25,3,3,0,0,0,1.2-.24,3,3,0,0,0,1-.67,3.47,3.47,0,0,0,.67-1A2.83,2.83,0,0,0,643.76,541.81Z" transform="translate(-473.75 -407.08)"/><path class="c" d="M662.16,534.91H667v13.72h-4.87V547.1a5.08,5.08,0,0,1-4.2,2,6.82,6.82,0,0,1-2.75-.55A6.63,6.63,0,0,1,653,547a7.09,7.09,0,0,1-1.46-2.33,8,8,0,0,1-.52-2.91,7.73,7.73,0,0,1,.51-2.79,7.18,7.18,0,0,1,1.42-2.31,6.69,6.69,0,0,1,2.17-1.56,6.61,6.61,0,0,1,2.78-.57,5.59,5.59,0,0,1,4.25,1.79Zm-6.1,6.82A3.2,3.2,0,0,0,657,544a2.93,2.93,0,0,0,1,.67,3.19,3.19,0,0,0,1.24.24,3.12,3.12,0,0,0,1.22-.24,3,3,0,0,0,1-.67,3.47,3.47,0,0,0,.67-1,2.89,2.89,0,0,0,.25-1.2,3,3,0,0,0-.25-1.22,3.42,3.42,0,0,0-.67-1,3,3,0,0,0-1-.67,3.12,3.12,0,0,0-1.22-.24,3.19,3.19,0,0,0-1.24.24,2.94,2.94,0,0,0-1,.67,3.29,3.29,0,0,0-.66,1A2.93,2.93,0,0,0,656.06,541.73Z" transform="translate(-473.75 -407.08)"/><path class="c" d="M679.41,538.44a5.66,5.66,0,0,0-2.62-.7,2,2,0,0,0-1.08.27.82.82,0,0,0-.41.72.93.93,0,0,0,.07.39.68.68,0,0,0,.29.28,2.54,2.54,0,0,0,.67.24l1.16.27a5.56,5.56,0,0,1,3,1.43,3.65,3.65,0,0,1,1,2.63,4.78,4.78,0,0,1-.48,2.17,4.61,4.61,0,0,1-1.34,1.62,6.35,6.35,0,0,1-2.06,1,9.17,9.17,0,0,1-2.65.36,10.75,10.75,0,0,1-5.48-1.58l1.76-3.42a6.89,6.89,0,0,0,3.85,1.39,1.89,1.89,0,0,0,1.1-.29.88.88,0,0,0,.43-.75,1.24,1.24,0,0,0-.07-.44.72.72,0,0,0-.28-.32,2.25,2.25,0,0,0-.63-.27q-.41-.12-1.08-.25a6.2,6.2,0,0,1-3.14-1.35,3.34,3.34,0,0,1-.9-2.47,4.86,4.86,0,0,1,.43-2.07,4.29,4.29,0,0,1,1.23-1.56,5.76,5.76,0,0,1,1.94-1,8.64,8.64,0,0,1,2.53-.35,11.47,11.47,0,0,1,4.41.88Z" transform="translate(-473.75 -407.08)"/><path class="c" d="M478.59,558.52v22.19h-4.84V558.52Z" transform="translate(-473.75 -407.08)"/><path class="c" d="M492.49,567h4.87v13.72h-4.87v-1.52a5.08,5.08,0,0,1-4.2,2,6.82,6.82,0,0,1-2.75-.55,6.63,6.63,0,0,1-2.19-1.54,7.09,7.09,0,0,1-1.46-2.33,8,8,0,0,1-.52-2.91,7.73,7.73,0,0,1,.51-2.79,7.18,7.18,0,0,1,1.42-2.31,6.69,6.69,0,0,1,2.17-1.56,6.61,6.61,0,0,1,2.78-.57,5.59,5.59,0,0,1,4.25,1.79Zm-6.1,6.82a3.2,3.2,0,0,0,.9,2.25,2.93,2.93,0,0,0,1,.67,3.19,3.19,0,0,0,1.24.24,3.12,3.12,0,0,0,1.22-.24,3,3,0,0,0,1-.67,3.47,3.47,0,0,0,.67-1,2.89,2.89,0,0,0,.25-1.2,3,3,0,0,0-.25-1.22,3.42,3.42,0,0,0-.67-1,3,3,0,0,0-1-.67,3.12,3.12,0,0,0-1.22-.24,3.19,3.19,0,0,0-1.24.24,2.94,2.94,0,0,0-1,.67,3.29,3.29,0,0,0-.66,1A2.93,2.93,0,0,0,486.39,573.82Z" transform="translate(-473.75 -407.08)"/><path class="c" d="M514.58,587.56h-4.84V567h4.84v1.52a5.11,5.11,0,0,1,4.23-2,6.57,6.57,0,0,1,2.74.57,7,7,0,0,1,2.21,1.56,7.1,7.1,0,0,1,1.46,2.33,7.8,7.8,0,0,1,.52,2.86,7.59,7.59,0,0,1-.52,2.83,7.28,7.28,0,0,1-1.44,2.3,6.62,6.62,0,0,1-4.91,2.11,5.71,5.71,0,0,1-4.28-1.76Zm6.1-13.66a3.29,3.29,0,0,0-.23-1.22,2.93,2.93,0,0,0-.66-1,3.29,3.29,0,0,0-1-.68,3.15,3.15,0,0,0-2.45,0,3,3,0,0,0-1,.67,3.4,3.4,0,0,0-.67,1,3,3,0,0,0-.25,1.22,3,3,0,0,0,.24,1.2,3,3,0,0,0,.67,1,3.4,3.4,0,0,0,1,.67,3,3,0,0,0,1.22.25,3,3,0,0,0,1.2-.24,3,3,0,0,0,1-.67,3.47,3.47,0,0,0,.67-1A2.83,2.83,0,0,0,520.67,573.9Z" transform="translate(-473.75 -407.08)"/><path class="c" d="M539.07,567h4.87v13.72h-4.87v-1.52a5.08,5.08,0,0,1-4.2,2,6.82,6.82,0,0,1-2.75-.55,6.63,6.63,0,0,1-2.19-1.54,7.09,7.09,0,0,1-1.46-2.33,8,8,0,0,1-.52-2.91,7.73,7.73,0,0,1,.51-2.79,7.18,7.18,0,0,1,1.42-2.31,6.69,6.69,0,0,1,2.17-1.56,6.61,6.61,0,0,1,2.78-.57,5.59,5.59,0,0,1,4.25,1.79Zm-6.1,6.82a3.2,3.2,0,0,0,.9,2.25,2.93,2.93,0,0,0,1,.67,3.19,3.19,0,0,0,1.24.24,3.12,3.12,0,0,0,1.22-.24,3,3,0,0,0,1-.67,3.47,3.47,0,0,0,.67-1,2.89,2.89,0,0,0,.25-1.2,3,3,0,0,0-.25-1.22,3.42,3.42,0,0,0-.67-1,3,3,0,0,0-1-.67,3.12,3.12,0,0,0-1.22-.24,3.19,3.19,0,0,0-1.24.24,2.94,2.94,0,0,0-1,.67,3.29,3.29,0,0,0-.66,1A2.93,2.93,0,0,0,533,573.82Z" transform="translate(-473.75 -407.08)"/><path class="c" d="M562.58,567v12.78a14.32,14.32,0,0,1-.13,2.06,8.9,8.9,0,0,1-.37,1.6,5,5,0,0,1-1,1.64,6.75,6.75,0,0,1-1.64,1.32,8.69,8.69,0,0,1-2.18.88,11,11,0,0,1-5.58-.08,8,8,0,0,1-2.34-1.11,6.46,6.46,0,0,1-1.64-1.66,5.51,5.51,0,0,1-.86-2.07h5.46a2.17,2.17,0,0,0,2.3,1.36,3.08,3.08,0,0,0,2.34-.86,3.31,3.31,0,0,0,.82-2.38v-1.31a8.13,8.13,0,0,1-1,.84,5.85,5.85,0,0,1-1,.55,4.78,4.78,0,0,1-1.07.31,7.49,7.49,0,0,1-1.23.09,7,7,0,0,1-2.7-.51,6.24,6.24,0,0,1-3.52-3.6,7.71,7.71,0,0,1-.5-2.82,7.89,7.89,0,0,1,.53-2.93,7.54,7.54,0,0,1,1.46-2.35,6.7,6.7,0,0,1,2.19-1.58,6.63,6.63,0,0,1,2.77-.58,5.32,5.32,0,0,1,4.09,1.82V567Zm-10.86,6.79a3.2,3.2,0,0,0,.9,2.25,2.93,2.93,0,0,0,1,.67,3.19,3.19,0,0,0,1.24.24,3.12,3.12,0,0,0,1.22-.24,3,3,0,0,0,1-.67,3.41,3.41,0,0,0,.67-1,3.07,3.07,0,0,0,0-2.45,3.34,3.34,0,0,0-.68-1,3.09,3.09,0,0,0-1-.67,3.05,3.05,0,0,0-1.19-.24,2.89,2.89,0,0,0-1.2.25,3.46,3.46,0,0,0-1,.67,3.16,3.16,0,0,0-.68,1A2.88,2.88,0,0,0,551.72,573.79Z" transform="translate(-473.75 -407.08)"/><path class="c" d="M570.54,574.67q0,3.13,2.94,3.13a2.63,2.63,0,0,0,2.38-1.28h4.68q-1.42,4.71-7.09,4.71a9.31,9.31,0,0,1-3.18-.52,7.1,7.1,0,0,1-2.47-1.48,6.6,6.6,0,0,1-1.59-2.3,7.65,7.65,0,0,1-.56-3,8.48,8.48,0,0,1,.53-3.09,6.49,6.49,0,0,1,1.52-2.34A6.75,6.75,0,0,1,570.1,567a9.05,9.05,0,0,1,3.17-.52,8.86,8.86,0,0,1,3.13.52,6.34,6.34,0,0,1,2.35,1.51,6.56,6.56,0,0,1,1.47,2.42,9.6,9.6,0,0,1,.51,3.22v.51Zm5.67-2.81a2.91,2.91,0,0,0-1-1.63,3.07,3.07,0,0,0-3.65,0,2.66,2.66,0,0,0-.9,1.66Z" transform="translate(-473.75 -407.08)"/><path class="c" d="M603.17,587.56v-8.18a5.63,5.63,0,0,1-4.25,1.76A6.62,6.62,0,0,1,594,579a7.25,7.25,0,0,1-1.44-2.31,7.63,7.63,0,0,1-.52-2.82,7.71,7.71,0,0,1,.53-2.89,7.28,7.28,0,0,1,1.47-2.33,6.81,6.81,0,0,1,2.19-1.55,6.61,6.61,0,0,1,2.73-.56,5.08,5.08,0,0,1,4.2,2V567H608v20.56Zm-6.1-13.74a3.2,3.2,0,0,0,.9,2.25,2.93,2.93,0,0,0,1,.67,3.19,3.19,0,0,0,1.24.24,3.12,3.12,0,0,0,1.22-.24,3,3,0,0,0,1-.67,3.42,3.42,0,0,0,.67-1,3,3,0,0,0,.25-1.22,2.89,2.89,0,0,0-.25-1.2,3.48,3.48,0,0,0-.67-1,3,3,0,0,0-1-.67,3.19,3.19,0,0,0-2.43,0,2.94,2.94,0,0,0-1,.67,3.51,3.51,0,0,0-.67,1A2.79,2.79,0,0,0,597.07,573.82Z" transform="translate(-473.75 -407.08)"/><path class="c" d="M616.62,567v7.73q0,2.54,2.46,2.54a2.21,2.21,0,0,0,2.46-2.54V567h4.84v8.66a4.91,4.91,0,0,1-1.83,4.17,11.45,11.45,0,0,1-10.94,0,4.9,4.9,0,0,1-1.83-4.17V567Z" transform="translate(-473.75 -407.08)"/><path class="c" d="M634,574.67q0,3.13,2.94,3.13a2.63,2.63,0,0,0,2.38-1.28H644q-1.42,4.71-7.09,4.71a9.31,9.31,0,0,1-3.18-.52,7.1,7.1,0,0,1-2.47-1.48,6.6,6.6,0,0,1-1.59-2.3,7.65,7.65,0,0,1-.56-3,8.48,8.48,0,0,1,.53-3.09,6.49,6.49,0,0,1,1.52-2.34,6.75,6.75,0,0,1,2.39-1.48,9.05,9.05,0,0,1,3.17-.52,8.86,8.86,0,0,1,3.13.52,6.34,6.34,0,0,1,2.35,1.51,6.56,6.56,0,0,1,1.47,2.42,9.6,9.6,0,0,1,.51,3.22v.51Zm5.67-2.81a2.91,2.91,0,0,0-1-1.63,3.07,3.07,0,0,0-3.65,0,2.66,2.66,0,0,0-.9,1.66Z" transform="translate(-473.75 -407.08)"/><path class="c" d="M661.46,571v9.68h-4.84V571H655v-4h1.6v-4.12h4.84V567h2.75v4Z" transform="translate(-473.75 -407.08)"/><path class="c" d="M670.87,567v7.73q0,2.54,2.46,2.54a2.21,2.21,0,0,0,2.46-2.54V567h4.84v8.66a4.91,4.91,0,0,1-1.83,4.17,11.45,11.45,0,0,1-10.94,0,4.9,4.9,0,0,1-1.83-4.17V567Z" transform="translate(-473.75 -407.08)"/><path class="c" d="M521,599.09h4.84v2.25a5.56,5.56,0,0,1,1.9-1.89,5.1,5.1,0,0,1,2.62-.66h.41a2.94,2.94,0,0,1,.52.05v4.63a4.6,4.6,0,0,0-2.09-.48,3.12,3.12,0,0,0-2.53,1,4.45,4.45,0,0,0-.84,2.93v5.88H521Z" transform="translate(-473.75 -407.08)"/><path class="c" d="M538,606.76q0,3.13,2.94,3.13a2.63,2.63,0,0,0,2.38-1.28H548q-1.42,4.71-7.09,4.71a9.31,9.31,0,0,1-3.18-.52,7.1,7.1,0,0,1-2.47-1.48,6.6,6.6,0,0,1-1.59-2.3,7.65,7.65,0,0,1-.56-3,8.48,8.48,0,0,1,.53-3.09,6.49,6.49,0,0,1,1.52-2.34,6.75,6.75,0,0,1,2.39-1.48,9.05,9.05,0,0,1,3.17-.52,8.86,8.86,0,0,1,3.13.52,6.34,6.34,0,0,1,2.35,1.51,6.56,6.56,0,0,1,1.47,2.42,9.6,9.6,0,0,1,.51,3.22v.51ZM543.7,604a2.91,2.91,0,0,0-1-1.63,3.07,3.07,0,0,0-3.65,0,2.66,2.66,0,0,0-.9,1.66Z" transform="translate(-473.75 -407.08)"/><path class="c" d="M561.32,603.53a4.48,4.48,0,0,0-2.54-.86,3.46,3.46,0,0,0-1.3.24,3.21,3.21,0,0,0-1.06.68,3.14,3.14,0,0,0-.71,1,3.43,3.43,0,0,0-.25,1.35,3.36,3.36,0,0,0,.25,1.32,3.23,3.23,0,0,0,.7,1,3,3,0,0,0,1.06.68,3.57,3.57,0,0,0,1.31.24,4,4,0,0,0,2.54-.94v4.12a8.56,8.56,0,0,1-3.4.78,8,8,0,0,1-2.85-.51,7.23,7.23,0,0,1-2.38-1.46,7.15,7.15,0,0,1-1.64-2.27,6.93,6.93,0,0,1-.62-3,7.39,7.39,0,0,1,.59-3,7.13,7.13,0,0,1,1.6-2.33,7.26,7.26,0,0,1,2.42-1.52,8.21,8.21,0,0,1,3-.55,7.2,7.2,0,0,1,3.26.75Z" transform="translate(-473.75 -407.08)"/><path class="c" d="M564.74,590.61h4.84v10.21a5.3,5.3,0,0,1,2-1.62,6.29,6.29,0,0,1,2.38-.41,5.08,5.08,0,0,1,3.92,1.43,5.47,5.47,0,0,1,1.32,3.86v8.72h-4.84v-6.93a7.16,7.16,0,0,0-.16-1.68,2,2,0,0,0-.53-1,2.27,2.27,0,0,0-1.55-.56,2.39,2.39,0,0,0-1.89.74,3.05,3.05,0,0,0-.66,2.1v7.33h-4.84Z" transform="translate(-473.75 -407.08)"/><path class="c" d="M586.86,606.76q0,3.13,2.94,3.13a2.63,2.63,0,0,0,2.38-1.28h4.68q-1.42,4.71-7.09,4.71a9.31,9.31,0,0,1-3.18-.52,7.1,7.1,0,0,1-2.47-1.48,6.6,6.6,0,0,1-1.59-2.3,7.65,7.65,0,0,1-.56-3,8.48,8.48,0,0,1,.53-3.09,6.49,6.49,0,0,1,1.52-2.34,6.75,6.75,0,0,1,2.39-1.48,9.05,9.05,0,0,1,3.17-.52,8.86,8.86,0,0,1,3.13.52,6.34,6.34,0,0,1,2.35,1.51,6.56,6.56,0,0,1,1.47,2.42,9.6,9.6,0,0,1,.51,3.22v.51Zm5.67-2.81a2.91,2.91,0,0,0-1-1.63,3.07,3.07,0,0,0-3.65,0A2.66,2.66,0,0,0,587,604Z" transform="translate(-473.75 -407.08)"/><path class="c" d="M599.8,599.09h4.84v2.25a5.56,5.56,0,0,1,1.9-1.89,5.1,5.1,0,0,1,2.62-.66h.41a2.94,2.94,0,0,1,.52.05v4.63A4.6,4.6,0,0,0,608,603a3.12,3.12,0,0,0-2.53,1,4.45,4.45,0,0,0-.84,2.93v5.88H599.8Z" transform="translate(-473.75 -407.08)"/><path class="c" d="M622.74,603.53a4.48,4.48,0,0,0-2.54-.86,3.46,3.46,0,0,0-1.3.24,3.21,3.21,0,0,0-1.06.68,3.14,3.14,0,0,0-.71,1,3.43,3.43,0,0,0-.25,1.35,3.36,3.36,0,0,0,.25,1.32,3.23,3.23,0,0,0,.7,1,3,3,0,0,0,1.06.68,3.57,3.57,0,0,0,1.31.24,4,4,0,0,0,2.54-.94v4.12a8.56,8.56,0,0,1-3.4.78,8,8,0,0,1-2.85-.51,7.23,7.23,0,0,1-2.38-1.46,7.15,7.15,0,0,1-1.64-2.27,6.93,6.93,0,0,1-.62-3,7.39,7.39,0,0,1,.59-3,7.13,7.13,0,0,1,1.6-2.33,7.26,7.26,0,0,1,2.42-1.52,8.21,8.21,0,0,1,3-.55,7.2,7.2,0,0,1,3.26.75Z" transform="translate(-473.75 -407.08)"/><path class="c" d="M626.17,590.61H631v10.21a5.3,5.3,0,0,1,2-1.62,6.29,6.29,0,0,1,2.38-.41,5.08,5.08,0,0,1,3.92,1.43,5.47,5.47,0,0,1,1.32,3.86v8.72h-4.84v-6.93a7.16,7.16,0,0,0-.16-1.68,2,2,0,0,0-.53-1,2.27,2.27,0,0,0-1.55-.56,2.39,2.39,0,0,0-1.89.74,3.05,3.05,0,0,0-.66,2.1v7.33h-4.84Z" transform="translate(-473.75 -407.08)"/><path class="c" d="M648.28,606.76q0,3.13,2.94,3.13a2.63,2.63,0,0,0,2.38-1.28h4.68q-1.42,4.71-7.09,4.71a9.31,9.31,0,0,1-3.18-.52,7.1,7.1,0,0,1-2.47-1.48,6.6,6.6,0,0,1-1.59-2.3,7.65,7.65,0,0,1-.56-3,8.48,8.48,0,0,1,.53-3.09,6.49,6.49,0,0,1,1.52-2.34,6.75,6.75,0,0,1,2.39-1.48,9.05,9.05,0,0,1,3.17-.52,8.86,8.86,0,0,1,3.13.52,6.34,6.34,0,0,1,2.35,1.51A6.56,6.56,0,0,1,658,603a9.6,9.6,0,0,1,.51,3.22v.51Zm5.67-2.81a2.91,2.91,0,0,0-1-1.63,3.07,3.07,0,0,0-3.65,0,2.66,2.66,0,0,0-.9,1.66Z" transform="translate(-473.75 -407.08)"/><path class="c" d="M670.31,602.62a5.66,5.66,0,0,0-2.62-.7,2,2,0,0,0-1.08.27.82.82,0,0,0-.41.72.93.93,0,0,0,.07.39.68.68,0,0,0,.29.28,2.54,2.54,0,0,0,.67.24l1.16.27a5.56,5.56,0,0,1,3,1.43,3.65,3.65,0,0,1,1,2.63,4.78,4.78,0,0,1-.48,2.17,4.61,4.61,0,0,1-1.34,1.62,6.35,6.35,0,0,1-2.06,1,9.17,9.17,0,0,1-2.65.36,10.75,10.75,0,0,1-5.48-1.58l1.76-3.42A6.89,6.89,0,0,0,666,609.7a1.89,1.89,0,0,0,1.1-.29.88.88,0,0,0,.43-.75,1.24,1.24,0,0,0-.07-.44.72.72,0,0,0-.28-.32,2.25,2.25,0,0,0-.63-.27q-.41-.12-1.08-.25A6.2,6.2,0,0,1,662.3,606a3.34,3.34,0,0,1-.9-2.47,4.86,4.86,0,0,1,.43-2.07,4.29,4.29,0,0,1,1.23-1.56,5.76,5.76,0,0,1,1.94-1,8.64,8.64,0,0,1,2.53-.35,11.47,11.47,0,0,1,4.41.88Z" transform="translate(-473.75 -407.08)"/><path class="c" d="M674.59,610.24a3.13,3.13,0,0,1,.24-1.22,3.15,3.15,0,1,1,0,2.43A3.13,3.13,0,0,1,674.59,610.24Z" transform="translate(-473.75 -407.08)"/><path class="c" d="M625.16,873.12h16.94v27.93H625.16v28.86H591.28V901.05H523.5V877.59l53.62-88.07h48Zm-33.89,0v-55.3l-32.21,55.3Z" transform="translate(-473.75 -407.08)"/><path class="c" d="M651.23,859.53a99.6,99.6,0,0,1,4.38-30.44,70.23,70.23,0,0,1,12.29-23.37,55.45,55.45,0,0,1,18.81-15,55,55,0,0,1,66.93,15,71.34,71.34,0,0,1,12.2,23.37,108.09,108.09,0,0,1,0,60.88,72.47,72.47,0,0,1-12.2,23.46,53.83,53.83,0,0,1-18.81,15.08,54.83,54.83,0,0,1-66.93-15.08A71.33,71.33,0,0,1,655.6,890,99.61,99.61,0,0,1,651.23,859.53Zm36.12,0A79.16,79.16,0,0,0,689,876.47a49.27,49.27,0,0,0,4.75,13.22,25.55,25.55,0,0,0,7.35,8.66,16.65,16.65,0,0,0,19.27,0,24.3,24.3,0,0,0,7.35-8.66,51.57,51.57,0,0,0,4.65-13.22,86,86,0,0,0,0-33.79,50,50,0,0,0-4.65-13.22,24.51,24.51,0,0,0-7.35-8.56,16.64,16.64,0,0,0-19.27,0,25.8,25.8,0,0,0-7.35,8.56A47.81,47.81,0,0,0,689,842.68,79.54,79.54,0,0,0,687.35,859.53Z" transform="translate(-473.75 -407.08)"/><path class="c" d="M883.21,873.12h16.94v27.93H883.21v28.86H849.33V901.05H781.55V877.59l53.62-88.07h48Zm-33.89,0v-55.3l-32.21,55.3Z" transform="translate(-473.75 -407.08)"/></svg>