<?xml version="1.0" encoding="utf-8"?>
<!-- Generator: Adobe Illustrator 21.0.0, SVG Export Plug-In . SVG Version: 6.00 Build 0)  -->
<svg version="1.1" id="Calque_1" xmlns="http://www.w3.org/2000/svg" xmlns:xlink="http://www.w3.org/1999/xlink" x="0px" y="0px"
	 viewBox="0 0 100 125" style="enable-background:new 0 0 100 125;" xml:space="preserve">
<style type="text/css">
	.st0{fill:#050505;}
</style>
<g>
	<g>
		<path class="st0" d="M50,25.1c-5.8,0-10.6,4.8-10.6,10.6S44.2,46.3,50,46.3s10.6-4.8,10.6-10.6S55.8,25.1,50,25.1z M50,41.8
			c-3.3,0-6.1-2.7-6.1-6.1c0-3.3,2.7-6.1,6.1-6.1c3.3,0,6.1,2.7,6.1,6.1C56.1,39.1,53.3,41.8,50,41.8z"/>
		<path class="st0" d="M76.5,35.7C76.5,21.1,64.6,9.2,50,9.2S23.5,21.1,23.5,35.7c0,4.2,1,8.5,3,12.2l0,0L48,89.6
			c0.4,0.8,1.2,1.2,2,1.2s1.6-0.5,2-1.2l21.6-41.7l0,0C75.5,44.1,76.5,39.9,76.5,35.7z M50,83.6L30.5,45.8l0,0
			c-1.6-3.1-2.4-6.5-2.4-10.1c0-12.1,9.9-22,22-22s22,9.9,22,22c0,3.5-0.8,6.9-2.4,10l0,0L50,83.6z"/>
	</g>
</g>
</svg>
