<svg id="Calque_1" data-name="Calque 1" xmlns="http://www.w3.org/2000/svg" viewBox="0 0 129.47 96.2"><title>menu_icon</title><path d="M151.31,44.33H37.39a7.74,7.74,0,0,1-7.78-7.78h0a7.74,7.74,0,0,1,7.78-7.78H151.31a7.74,7.74,0,0,1,7.78,7.78h0A7.65,7.65,0,0,1,151.31,44.33Z" transform="translate(-29.62 -28.78)"/><path d="M92.55,84.94H37.39a7.74,7.74,0,0,1-7.78-7.78h0a7.74,7.74,0,0,1,7.78-7.78H92.55a7.74,7.74,0,0,1,7.78,7.78h0A7.65,7.65,0,0,1,92.55,84.94Z" transform="translate(-29.62 -28.78)"/><path d="M121.35,125h-84a7.74,7.74,0,0,1-7.78-7.78h0a7.74,7.74,0,0,1,7.78-7.78h83.81A7.74,7.74,0,0,1,129,117.2h0A7.54,7.54,0,0,1,121.35,125Z" transform="translate(-29.62 -28.78)"/></svg>