<?xml version="1.0" encoding="utf-8"?>
<!-- Generator: Adobe Illustrator 21.0.0, SVG Export Plug-In . SVG Version: 6.00 Build 0)  -->
<svg version="1.1" id="Calque_1" xmlns="http://www.w3.org/2000/svg" xmlns:xlink="http://www.w3.org/1999/xlink" x="0px" y="0px"
	 viewBox="0 0 1500 1500" style="enable-background:new 0 0 1500 1500;" xml:space="preserve">
<style type="text/css">
	.st0{fill:#E0E0E0;}
	.st1{fill:#7647F9;}
	.st2{fill:#FFFFFF;}
</style>
<rect x="204.9" y="258.1" class="st0" width="1100.9" height="614.8"/>
<path class="st1" d="M854.2,458.5H310.2c-1.6,0-3-1.3-3-3v-87.7c0-1.6,1.3-3,3-3h543.9c1.6,0,3,1.3,3,3v87.7
	C857.2,457.1,855.8,458.5,854.2,458.5z"/>
<g>
	<g>
		<path class="st2" d="M1299.3,1188.4L740.4,640L199,1189.3c1.1,5.2,1.8,10.5,2,15.9c6.8,8.1,11.8,17.6,14.8,27.8h1065.5
			c4.3-6,9.6-11.4,15.8-15.8C1296.4,1207.5,1297.1,1197.8,1299.3,1188.4z"/>
		<path class="st1" d="M739.9,584.6l-552.2,560.3c-0.3,4.9-1,9.7-2.1,14.5c9.5,13.2,14.8,29.2,15.4,45.7c6,7.1,10.6,15.3,13.7,24.2
			l526.1-533.8l543.7,533.5c3.7-4.4,7.9-8.3,12.7-11.7c-2.1-23.5,5.1-47.9,21.3-64.8L739.9,584.6z"/>
	</g>
	<g>
		<path class="st2" d="M199.5,1191.7l327.8-336.6L194,618.5v555C196.5,1179.3,198.4,1185.5,199.5,1191.7z"/>
		<path class="st1" d="M154.8,542.6v530.1c27.8,18.4,38.1,54.8,30.8,86.5c9.6,13.1,14.8,29.3,15.4,45.8c6.5,7.8,11.4,16.9,14.4,26.6
			l372-381.9L154.8,542.6z M233.2,694.4l234.1,166.2L233.2,1101V694.4z"/>
	</g>
	<g>
		<path class="st2" d="M1305.8,1170.5v-552L965.5,855.1l333.4,335.3C1300.4,1183.5,1302.7,1176.8,1305.8,1170.5z"/>
		<path class="st1" d="M1345,1135.4V543.5L904.7,849.6l378.6,380.7c3.9-5,8.6-9.3,13.9-13.1
			C1294.2,1183.5,1310.2,1147.8,1345,1135.4z M1266.6,1102.4l-240.4-241.7l240.4-167.1V1102.4z"/>
	</g>
</g>
<path class="st1" d="M1268.6,1272.2H231.2c-42.1,0-76.4-34.3-76.4-76.4V302.7c0-42.1,34.3-76.4,76.4-76.4h1037.4
	c42.1,0,76.4,34.3,76.4,76.4v893.1C1345,1237.9,1310.7,1272.2,1268.6,1272.2z M233.2,1193.8h1033.4v-889H233.2V1193.8z"/>
</svg>
