<svg id="Calque_1" data-name="Calque 1" xmlns="http://www.w3.org/2000/svg" viewBox="0 0 70.79 81.73"><title>timer</title><path d="M49.53,44.56a3,3,0,0,0-3,3V65a3,3,0,0,0,6,0V47.54A3,3,0,0,0,49.53,44.56Z" transform="translate(-14.14 -18.63)"/><path d="M49.54,29.58A35.39,35.39,0,1,0,84.93,65,35.43,35.43,0,0,0,49.54,29.58Zm0,61.84A26.45,26.45,0,1,1,76,65,26.48,26.48,0,0,1,49.54,91.42Z" transform="translate(-14.14 -18.63)"/><path d="M52,18.63H47a4.91,4.91,0,0,0-4.92,4.91V25.7H56.88V23.55A4.91,4.91,0,0,0,52,18.63Z" transform="translate(-14.14 -18.63)"/></svg>